<?xml version="1.0" encoding="utf-8"?>
<!-- Generator: Adobe Illustrator 23.0.0, SVG Export Plug-In . SVG Version: 6.00 Build 0)  -->
<svg version="1.1" id="Layer_1" xmlns="http://www.w3.org/2000/svg" xmlns:xlink="http://www.w3.org/1999/xlink" x="0px" y="0px"
	 viewBox="0 0 1024 2700" style="enable-background:new 0 0 1024 2700;" xml:space="preserve">
<style type="text/css">
	.st0{fill:url(#SVGID_1_);}
	.st1{fill:url(#SVGID_2_);}
	.st2{fill:url(#SVGID_3_);}
	.st3{fill:url(#SVGID_4_);}
	.st4{fill:url(#SVGID_5_);}
	.st5{fill:url(#SVGID_6_);}
	.st6{fill:url(#SVGID_7_);}
	.st7{fill:url(#SVGID_8_);}
	.st8{fill:url(#SVGID_9_);}
	.st9{fill:url(#SVGID_10_);}
	.st10{fill:url(#SVGID_11_);}
	.st11{fill:url(#SVGID_12_);}
	.st12{fill:url(#SVGID_13_);}
	.st13{fill:url(#SVGID_14_);}
	.st14{fill:url(#SVGID_15_);}
</style>
<linearGradient id="SVGID_1_" gradientUnits="userSpaceOnUse" x1="524" y1="4014.6443" x2="1024" y2="4014.6443" gradientTransform="matrix(1 0 0 -1 0 4234)">
	<stop  offset="6.225962e-02" style="stop-color:#091E42;stop-opacity:0.2"/>
	<stop  offset="1" style="stop-color:#0065FF;stop-opacity:0.3"/>
</linearGradient>
<path class="st0" d="M774.8,250.3v62.4h-62.4v-62.4H774.8z M837.1,250.3v62.4h62.4v-62.4H837.1z M774.8,375.2h62.4v-62.4h-62.4
	V375.2z M712.4,125.6v62.3h62.4v-62.3H712.4z M837.1,125.6v62.3h62.4v-62.3H837.1z M774.8,250.3h62.4v-62.4h-62.4V250.3z M962,250.3
	v-62.4h-62.4v62.4H962z M836.9,0.9v62.4h62.4V0.9H836.9z M961.6,0.9v62.4h62.4V0.9H961.6z M899.2,125.7h62.4V63.3h-62.4V125.7z
	 M586.5,124.7v62.4H649v-62.4H586.5z M711.4,249.6v-62.4H649v62.4H711.4z M586.5,0v62.4H649V0H586.5z M524.1,124.7h62.4V62.4h-62.4
	V124.7z M711.4,124.7V62.4H649v62.4h62.4V124.7z M524,313.9v62.4h62.4v-62.4H524z M648.7,313.9v62.4h62.4v-62.4H648.7z M586.4,438.7
	h62.4v-62.4h-62.4V438.7z"/>
<linearGradient id="SVGID_2_" gradientUnits="userSpaceOnUse" x1="4.2549" y1="2417.2163" x2="442.2112" y2="2417.2163" gradientTransform="matrix(-1 0 0 -1 508.5099 4961.2886)">
	<stop  offset="6.225962e-02" style="stop-color:#091E42;stop-opacity:0.2"/>
	<stop  offset="0.1434" style="stop-color:#082658;stop-opacity:0.2102"/>
	<stop  offset="0.4934" style="stop-color:#0448B1;stop-opacity:0.2542"/>
	<stop  offset="0.7393" style="stop-color:#015DE9;stop-opacity:0.2851"/>
	<stop  offset="0.8575" style="stop-color:#0065FF;stop-opacity:0.3"/>
</linearGradient>
<path class="st1" d="M253.4,2575.5v-62.4h62.4v62.4H253.4z M191.1,2575.5v-62.4h-62.4v62.4H191.1z M253.4,2450.6H191v62.4h62.4
	V2450.6z M315.9,2700.2v-62.3h-62.4v62.3H315.9z M191.1,2700.2v-62.3h-62.4v62.3H191.1z M253.4,2575.5H191v62.4h62.4V2575.5z
	 M66.3,2575.5v62.4h62.4v-62.4H66.3z M441.7,2701.1v-62.4h-62.4v62.4H441.7z M316.9,2576.2v62.4h62.4v-62.4H316.9z M504.3,2511.9
	v-62.4h-62.4v62.4H504.3z M379.5,2511.9v-62.4h-62.4v62.4H379.5z M441.8,2387.1h-62.4v62.4h62.4V2387.1z"/>
<g>
	<g>
		
			<linearGradient id="SVGID_3_" gradientUnits="userSpaceOnUse" x1="-449.811" y1="257.9213" x2="-799.7392" y2="257.9213" gradientTransform="matrix(-6.123234e-17 1 1 6.123234e-17 591.4154 2392.3789)">
			<stop  offset="6.225962e-02" style="stop-color:#091E42;stop-opacity:0.2"/>
			<stop  offset="0.9397" style="stop-color:#0065FF;stop-opacity:0.3"/>
		</linearGradient>
		<path class="st2" d="M675,1940.4c0-92.1,35.8-178.7,101.1-244.3c65.8-66.1,153.6-102.9,247.3-103.5l0.3,44.2
			c-168.1,1-304.1,137-304.1,303.4c0,0.6,0,1.3,0,2l-44.6,0.3C675,1942,675,1941.1,675,1940.4z"/>
		
			<linearGradient id="SVGID_4_" gradientUnits="userSpaceOnUse" x1="-448.6819" y1="182.4194" x2="-948.6819" y2="182.4194" gradientTransform="matrix(-6.123234e-17 1 1 6.123234e-17 591.4154 2392.3789)">
			<stop  offset="6.225962e-02" style="stop-color:#091E42;stop-opacity:0.2"/>
			<stop  offset="0.9397" style="stop-color:#0065FF;stop-opacity:0.3"/>
		</linearGradient>
		<path class="st3" d="M524.8,1940.4c0-272.4,222.5-495,497.7-496.7l0.3,44.2c-250.6,1.6-453.3,204.3-453.3,452.5c0,1,0,2,0,3
			l-44.6,0.3C524.8,1942.6,524.8,1941.5,524.8,1940.4z"/>
		
			<linearGradient id="SVGID_5_" gradientUnits="userSpaceOnUse" x1="-450.7349" y1="340.1507" x2="-637.7601" y2="340.1507" gradientTransform="matrix(-6.123234e-17 1 1 6.123234e-17 591.4154 2392.3789)">
			<stop  offset="6.225962e-02" style="stop-color:#091E42;stop-opacity:0.2"/>
			<stop  offset="0.9397" style="stop-color:#0065FF;stop-opacity:0.3"/>
		</linearGradient>
		<path class="st4" d="M838.3,1940.4c0-101.9,83.2-185.2,186.2-185.8l0.3,44.2c-78.3,0.5-141.8,63.9-141.8,141.6c0,0.3,0,0.6,0,0.9
			l-44.6,0.3C838.3,1941.2,838.3,1940.8,838.3,1940.4z"/>
	</g>
</g>
<g>
	
		<linearGradient id="SVGID_6_" gradientUnits="userSpaceOnUse" x1="1345.6842" y1="3211.1335" x2="1583.2306" y2="3211.1335" gradientTransform="matrix(0.8672 -0.498 -0.498 -0.8672 488.2471 4356.7422)">
		<stop  offset="6.225962e-02" style="stop-color:#091E42;stop-opacity:0.2"/>
		<stop  offset="0.2351" style="stop-color:#072A63;stop-opacity:0.2199"/>
		<stop  offset="0.6125" style="stop-color:#0449B5;stop-opacity:0.2633"/>
		<stop  offset="0.9318" style="stop-color:#0065FF;stop-opacity:0.3"/>
	</linearGradient>
	<path class="st5" d="M258.4,778.8c-1.8-7.7-7.8-13.3-17.5-7.9c-10.6,6-21.2,12.3-31.5,19.2c-4.4,2.9-8.5,6.4-13.1,8.9
		c-9.3,5.2-18.6,10.5-27.4,17.1c-9.7,7.2-19,15.3-29.3,21.4c-8,4.8-15.9,10.3-23.3,16.4c-7.3,5.9-15,10.9-22.8,15.8
		c-11.2,7.1-21.6,15.9-31.6,25.3c-4.5,4.2-4.7,6.4-3,11.4c1.5,4.4,4.4,6.3,9,5.8c6.3-0.6,12.5-1.9,18.8-5.2
		c11.9-6.4,24-12.5,36-18.9c9.1-4.9,18.5-9.1,27-15.9c1.7-1.3,3.7-2.1,5.6-2.6c2.9-0.8-0.2-4.3,2.9-4.9c1.1-0.2,1.9-3.7,3.3-1.7
		c1.9,2.6,4.2,0.3,5.7-0.9c6.4-5,12.4-10.5,19.5-13.8c2.8-1.2,3.2-4,3.9-6.5c2.3,1,4,0.2,6.5-1.8c5-3.9,9.6-8.7,14.4-12.2
		c6-4.4,12.5-7.2,17.5-13.7c0.4-0.6,1.3-1,2-1.1c9.5-2.2,15-11.1,21.8-18.5C254.1,789.2,259.8,784.4,258.4,778.8z"/>
	
		<linearGradient id="SVGID_7_" gradientUnits="userSpaceOnUse" x1="1396.3616" y1="3031.1733" x2="1573.874" y2="3031.1733" gradientTransform="matrix(0.8672 -0.498 -0.498 -0.8672 488.2471 4356.7422)">
		<stop  offset="6.225962e-02" style="stop-color:#091E42;stop-opacity:0.2"/>
		<stop  offset="0.2351" style="stop-color:#072A63;stop-opacity:0.2199"/>
		<stop  offset="0.6125" style="stop-color:#0449B5;stop-opacity:0.2633"/>
		<stop  offset="0.9318" style="stop-color:#0065FF;stop-opacity:0.3"/>
	</linearGradient>
	<path class="st6" d="M341.8,943.3c0.1-7.1-9.8-11.8-17.1-8.8c-5.5,2.2-11,4.8-16.4,7.8c-13.5,7.6-26.3,17-39.6,25.2
		c-18.3,11.2-36.3,23.2-54,35.8c-6.5,4.7-13.4,9.1-19.3,15.3c-2.9,3-4.8,6.4-5.1,10.3c-0.8,7.8,3.7,11.7,12,10.5
		c5.7-0.8,11.2-3.6,16.6-6c6.1-2.8,12.1-6.1,18.2-9c6-2.9,11.5-7.7,18-9.1c3.5-0.8,6.6-5.9,10.9-5.3c0.5,0.1,1.7-0.6,1.6-1.5
		c-1.4-7,4.7-1.4,5.5-4.6c6.2,0.8,11.3-3.2,16.1-8c1.6-1.6,3-2,4.6-2.9c11.2-6.3,22-13.3,32.2-21.6c4.1-3.3,7.4-7.7,10.5-11.2
		C340,954.4,341.7,948.5,341.8,943.3z"/>
	
		<linearGradient id="SVGID_8_" gradientUnits="userSpaceOnUse" x1="1297.8395" y1="3081.8115" x2="1466.8069" y2="3081.8115" gradientTransform="matrix(0.8672 -0.498 -0.498 -0.8672 488.2471 4356.7422)">
		<stop  offset="6.225962e-02" style="stop-color:#091E42;stop-opacity:0.2"/>
		<stop  offset="0.2351" style="stop-color:#072A63;stop-opacity:0.2199"/>
		<stop  offset="0.6125" style="stop-color:#0449B5;stop-opacity:0.2633"/>
		<stop  offset="0.9318" style="stop-color:#0065FF;stop-opacity:0.3"/>
	</linearGradient>
	<path class="st7" d="M224.4,957.5c-1-3.1-2.1-6.2-2.6-9.6c-0.2-1-0.5-2.3-1.4-2.3c-5.1-0.1-9.8-2.6-15.4,0.7
		c-13.1,7.8-26.4,14.8-39.2,23.3c-10.9,7.3-20.9,16.9-32.8,22c-1.2,0.5-3,1.3-3,2.5c0.3,4.7-2,4.4-4.4,3.8c-2-0.5-3.8,0.3-5.6,1.7
		c-6.2,5-12.5,9.2-19.3,13.1c-6.1,3.5-11.5,8.5-16.6,13.7c-3.5,3.6-5.1,9.1-4,12.8c1.2,4,4,5.1,8.1,4.7c3.7-0.4,7.3-0.9,10.9-2.3
		c15.5-6.3,30.9-14,45.5-23.3c11.8-7.6,24.8-11,35.5-21.4c0.4-0.4,1.5,0.1,2.1-0.3c15-8.7,31.5-14.6,40.9-33.4
		C225.8,961.5,224.8,959,224.4,957.5z"/>
	
		<linearGradient id="SVGID_9_" gradientUnits="userSpaceOnUse" x1="1324.2935" y1="2969.3823" x2="1478.837" y2="2969.3823" gradientTransform="matrix(0.8672 -0.498 -0.498 -0.8672 488.2471 4356.7422)">
		<stop  offset="6.225962e-02" style="stop-color:#091E42;stop-opacity:0.2"/>
		<stop  offset="0.2351" style="stop-color:#072A63;stop-opacity:0.2199"/>
		<stop  offset="0.6125" style="stop-color:#0449B5;stop-opacity:0.2633"/>
		<stop  offset="0.9318" style="stop-color:#0065FF;stop-opacity:0.3"/>
	</linearGradient>
	<path class="st8" d="M171.2,1124.8c6-2.2,12-4.9,18-7c9-3,17.6-7.6,26.2-12.2c11.1-5.9,22.5-10.3,33.3-17.2
		c5.4-3.5,12.3-3.7,16.3-9.1c2.9-3.9,5.6-4.4,8.6-5.2c4.9-1.1,9.1-4.1,11.8-8.7c2.3-3.7,2.4-8.5,6.4-11.5c0.9-0.6,1-2,0.7-3
		c-1.4-3.7-5.7-5.6-3.8-11.2c0.1-0.3-0.5-0.9-0.9-0.9c-5.8,0-11.1-2.9-17.7-0.1c-13.2,5.7-25.4,14.3-37.7,22.5
		c-7.1,4.8-13.9,10.5-21.3,14.6c-10.5,5.9-20.8,12.1-30.7,19.6c-6.9,5.2-14.4,9.7-20.4,16.5c-4.2,4.8-4.1,10,0.4,12.9
		C163.4,1126.9,167.3,1126.2,171.2,1124.8z"/>
	
		<linearGradient id="SVGID_10_" gradientUnits="userSpaceOnUse" x1="1500.6152" y1="3091.0352" x2="1658.7168" y2="3091.0352" gradientTransform="matrix(0.8672 -0.498 -0.498 -0.8672 488.2471 4356.7422)">
		<stop  offset="6.225962e-02" style="stop-color:#091E42;stop-opacity:0.2"/>
		<stop  offset="0.2351" style="stop-color:#072A63;stop-opacity:0.2199"/>
		<stop  offset="0.6125" style="stop-color:#0449B5;stop-opacity:0.2633"/>
		<stop  offset="0.9318" style="stop-color:#0065FF;stop-opacity:0.3"/>
	</linearGradient>
	<path class="st9" d="M384.6,845.3c-3-5-8.3-3.7-13.4-2.1c-3.8,1.1-7.8,2.9-11.6,4.4c-1.1,0.5-3.2,1.5-3.3,2c-0.3,4.6-2.6,4-5.2,3.9
		c-1.6,0-3.5,0.8-5.1,1.7c-8.9,5.3-18.1,9.5-26.7,16.2c-8.1,6.4-16.7,11.8-25.1,17.5c-8.2,5.7-16.2,11.5-24.4,17.2
		c-4.9,3.4-9.6,7.4-13.9,11.7c-3.2,3.1-5.4,7.1-4.5,11.8c0.7,4.3,3.6,5.1,6.8,5.7c3.5,0.6,7,0.5,10.6-1.3c5.9-2.9,11.9-5.7,17.6-8.9
		c10.8-6.4,21.8-12.1,32.8-17.6c14.2-7.1,27.4-16.7,40.6-26.4c7.6-5.6,15.8-11,20.2-19.3C384.1,855.9,387.7,850.6,384.6,845.3z"/>
	
		<linearGradient id="SVGID_11_" gradientUnits="userSpaceOnUse" x1="1417.4303" y1="3272.1421" x2="1511.6346" y2="3272.1421" gradientTransform="matrix(0.8672 -0.498 -0.498 -0.8672 488.2471 4356.7422)">
		<stop  offset="6.225962e-02" style="stop-color:#091E42;stop-opacity:0.2"/>
		<stop  offset="0.2351" style="stop-color:#072A63;stop-opacity:0.2199"/>
		<stop  offset="0.6125" style="stop-color:#0449B5;stop-opacity:0.2633"/>
		<stop  offset="0.9318" style="stop-color:#0065FF;stop-opacity:0.3"/>
	</linearGradient>
	<path class="st10" d="M167.5,771.5c-1.1-3.5-1-7.4-1.5-11.1c-0.2-0.9-0.8-2-1.5-2.2c-4.4-0.8-9.1-2.9-13.6-1.6
		c-11.3,3.4-22.7,9-33.1,15.9c-8.6,5.6-16.2,13.7-24.2,20.9c-5.6,5-6.6,11.1-5.3,17.1c1.5,6.4,3.5,13.2,10.9,12.5
		c8-0.7,16.1-1,24.4-6.6c4.3-2.9,8.7-5.7,13.2-8.4c9.9-5.9,18.6-13.2,24.9-24.1c1.1-2,0.4-4.4,2.7-5.9
		C166.3,776.1,168,773.2,167.5,771.5z"/>
	
		<linearGradient id="SVGID_12_" gradientUnits="userSpaceOnUse" x1="1448.5671" y1="3149.3948" x2="1553.2946" y2="3149.3948" gradientTransform="matrix(0.8672 -0.498 -0.498 -0.8672 488.2471 4356.7422)">
		<stop  offset="6.225962e-02" style="stop-color:#091E42;stop-opacity:0.2"/>
		<stop  offset="0.2351" style="stop-color:#072A63;stop-opacity:0.2199"/>
		<stop  offset="0.6125" style="stop-color:#0449B5;stop-opacity:0.2633"/>
		<stop  offset="0.9318" style="stop-color:#0065FF;stop-opacity:0.3"/>
	</linearGradient>
	<path class="st11" d="M263,859.2c3.1-6.8,1.6-12.8-1.6-15.7c-3.7-3.4-9.2-5.7-16.3-0.5c-9.9,7.2-20.5,13-30.6,19.8
		c-10.4,7-20.6,14.1-29.9,23.3c-9.1,9.1-10.7,16.6-4.5,25c1.2,1.7,2.7,3.4,5.1,3c7.9-1.5,15.8-2.3,23.8-7.1
		c10.7-6.6,20.7-15,31.6-21.2c6.3-3.6,13.1-7.7,16.8-15.6C260.4,867,261.3,862.9,263,859.2z"/>
	
		<linearGradient id="SVGID_13_" gradientUnits="userSpaceOnUse" x1="1443.7091" y1="2906.4451" x2="1556.5131" y2="2906.4451" gradientTransform="matrix(0.8672 -0.498 -0.498 -0.8672 488.2471 4356.7422)">
		<stop  offset="6.225962e-02" style="stop-color:#091E42;stop-opacity:0.2"/>
		<stop  offset="0.2351" style="stop-color:#072A63;stop-opacity:0.2199"/>
		<stop  offset="0.6125" style="stop-color:#0449B5;stop-opacity:0.2633"/>
		<stop  offset="0.9318" style="stop-color:#0065FF;stop-opacity:0.3"/>
	</linearGradient>
	<path class="st12" d="M371.2,1053.3c-13.9,7.1-27.2,15.9-40.3,24.9c-6,4.2-11.5,9.4-18.1,12.4c-7.1,3.2-12.5,9.8-18.2,15.4
		c-1.7,1.7-2.3,3.7-2.2,5.9c0.1,8.4,3.4,11.2,11.3,10.6c7.6-0.5,14.9-4.8,22.3-7.1c18.7-5.9,35.2-19.7,52.4-30.7
		c6.7-4.3,11.6-20.1,9.4-27.4c-0.7-2.4-1.1-5-4.5-4.9C380.1,1048.3,375.8,1050.9,371.2,1053.3z"/>
	
		<linearGradient id="SVGID_14_" gradientUnits="userSpaceOnUse" x1="1521.2585" y1="2965.2441" x2="1632.5961" y2="2965.2441" gradientTransform="matrix(0.8672 -0.498 -0.498 -0.8672 488.2471 4356.7422)">
		<stop  offset="6.225962e-02" style="stop-color:#091E42;stop-opacity:0.2"/>
		<stop  offset="0.2351" style="stop-color:#072A63;stop-opacity:0.2199"/>
		<stop  offset="0.6125" style="stop-color:#0449B5;stop-opacity:0.2633"/>
		<stop  offset="0.9318" style="stop-color:#0065FF;stop-opacity:0.3"/>
	</linearGradient>
	<path class="st13" d="M426,970c-3.2-5.7-8.9-5.4-15.1-3.6c-0.7,0.2-1.5,0.3-2.2,0.6c-8.2,4-16.4,8.3-24.6,12.1
		c-9.2,4.4-17.7,11-26.4,16.8c-8.4,5.6-16.3,12.1-23.5,19.6c-3.3,3.4-4.3,7.4-3.5,11.3c0.7,4,3.7,5,7.2,5.1
		c9.9,0.2,19.9-3.2,29.6-7.8c16.7-7.7,31.7-20.6,47.8-29.9c2.8-1.6,4.8-4.7,7.3-8.5C424.5,981.1,429.2,975.6,426,970z"/>
	
		<linearGradient id="SVGID_15_" gradientUnits="userSpaceOnUse" x1="1303.8757" y1="3149.2771" x2="1395.0592" y2="3149.2771" gradientTransform="matrix(0.8672 -0.498 -0.498 -0.8672 488.2471 4356.7422)">
		<stop  offset="6.225962e-02" style="stop-color:#091E42;stop-opacity:0.2"/>
		<stop  offset="0.2351" style="stop-color:#072A63;stop-opacity:0.2199"/>
		<stop  offset="0.6125" style="stop-color:#0449B5;stop-opacity:0.2633"/>
		<stop  offset="0.9318" style="stop-color:#0065FF;stop-opacity:0.3"/>
	</linearGradient>
	<path class="st14" d="M58.7,982c10.2,0.2,20.2-5,30.1-9.4c8.8-4,17.1-10,25.3-15.9c4.9-3.6,8.5-7.6,11.5-13.6
		c3-6.1,4.5-10.5,0.2-14.5c-1.4-1.2,1.2-4.5-0.4-5c-3.8-1-7.3-3.5-12-1.3c-13.3,6.1-25.3,16.3-38.1,23.8c-1.5,0.9-1.8,2.4-1.9,4.2
		c-0.1,2.3-1.4,3-2.5,1c-0.6-1-1.5-0.9-2.4-0.1c-5.1,4.7-10.6,8.8-14.3,12.9C47.6,972.9,50.5,981.8,58.7,982z"/>
</g>
</svg>
